<svg width="74" height="73" viewBox="0 0 74 73" fill="none" xmlns="http://www.w3.org/2000/svg">
<line y1="-0.5" x2="24.6667" y2="-0.5" transform="matrix(0.707107 0.707107 0.707107 -0.707107 28.9883 26.9941)" stroke="white"/>
<path d="M28.5371 44.4375L37.2581 35.7165L45.9791 26.9955" stroke="white"/>
<rect x="15.1465" y="13.6045" width="43.7083" height="43.7083" rx="5.5" stroke="white"/>
<line x1="31.1035" y1="13.1045" x2="31.1035" y2="5.39616" stroke="white"/>
<path d="M42.3965 57.8125L42.3965 65.5208M47.0215 57.8125L47.0215 62.2596" stroke="white"/>
<line x1="41.8965" y1="13.1045" x2="41.8965" y2="8.47949" stroke="white"/>
<line x1="32.1035" y1="57.8125" x2="32.1035" y2="62.4375" stroke="white"/>
<line x1="48.0625" y1="13.1045" x2="48.0625" y2="6.93783" stroke="white"/>
<line x1="25.9375" y1="57.8125" x2="25.9375" y2="65.5208" stroke="white"/>
<line x1="26.4785" y1="13.1045" x2="26.4785" y2="10.0212" stroke="white"/>
<circle cx="47.791" cy="6.16699" r="1.8125" stroke="white"/>
<path d="M24.3965 66.292C24.3965 65.291 25.208 64.4795 26.209 64.4795C27.21 64.4795 28.0215 65.291 28.0215 66.292C28.0215 67.293 27.21 68.1045 26.209 68.1045C25.208 68.1045 24.3965 67.293 24.3965 66.292Z" stroke="white"/>
<circle cx="26.209" cy="9.25" r="1.8125" stroke="white"/>
<path d="M45.209 63.208C45.209 62.207 46.0205 61.3955 47.0215 61.3955C48.0225 61.3955 48.834 62.207 48.834 63.208C48.834 64.209 48.0225 65.0205 47.0215 65.0205C46.0205 65.0205 45.209 64.209 45.209 63.208Z" stroke="white"/>
<circle r="1.8125" transform="matrix(-1 0 0 1 32.375 2.3125)" stroke="white"/>
<path d="M43.4375 70.1455C43.4375 69.1445 42.626 68.333 41.625 68.333C40.624 68.333 39.8125 69.1445 39.8125 70.1455C39.8125 71.1465 40.624 71.958 41.625 71.958C42.626 71.958 43.4375 71.1465 43.4375 70.1455Z" stroke="white"/>
<path d="M37.7559 13.1042V4.36806C37.8569 3.68287 37.5136 2.3125 35.333 2.3125C33.1523 2.3125 33.011 2.3125 33.2129 2.3125" stroke="white"/>
<path d="M36.2441 57.8122L36.2441 67.7963C36.1431 68.5794 36.4864 70.1455 38.667 70.1455C40.8477 70.1455 40.989 70.1455 40.7871 70.1455" stroke="white"/>
<line x1="14.6465" y1="38.2705" x2="6.93815" y2="38.2705" stroke="white"/>
<line x1="59.3535" y1="29.5625" x2="67.0619" y2="29.5625" stroke="white"/>
<line x1="14.6465" y1="29.0205" x2="10.0215" y2="29.0205" stroke="white"/>
<line x1="59.3535" y1="40.3545" x2="63.9785" y2="40.3545" stroke="white"/>
<line x1="14.6465" y1="22.8545" x2="6.93815" y2="22.8545" stroke="white"/>
<line x1="59.3535" y1="46.5205" x2="67.0619" y2="46.5205" stroke="white"/>
<line x1="14.6465" y1="47.5205" x2="10.0215" y2="47.5205" stroke="white"/>
<line x1="59.3535" y1="24.9375" x2="63.9785" y2="24.9375" stroke="white"/>
<path d="M6.16602 21.3125C7.16703 21.3125 7.97852 22.124 7.97852 23.125C7.97852 24.126 7.16703 24.9375 6.16602 24.9375C5.165 24.9375 4.35352 24.126 4.35352 23.125C4.35352 22.124 5.165 21.3125 6.16602 21.3125Z" stroke="white"/>
<path d="M67.834 48.0625C66.833 48.0625 66.0215 47.251 66.0215 46.25C66.0215 45.249 66.833 44.4375 67.834 44.4375C68.835 44.4375 69.6465 45.249 69.6465 46.25C69.6465 47.251 68.835 48.0625 67.834 48.0625Z" stroke="white"/>
<path d="M9.25 45.9795C10.251 45.9795 11.0625 46.791 11.0625 47.792C11.0625 48.793 10.251 49.6045 9.25 49.6045C8.24898 49.6045 7.4375 48.793 7.4375 47.792C7.4375 46.791 8.24898 45.9795 9.25 45.9795Z" stroke="white"/>
<path d="M64.75 26.4795C63.749 26.4795 62.9375 25.668 62.9375 24.667C62.9375 23.666 63.749 22.8545 64.75 22.8545C65.751 22.8545 66.5625 23.666 66.5625 24.667C66.5625 25.668 65.751 26.4795 64.75 26.4795Z" stroke="white"/>
<path d="M2.3125 38.8125C3.31352 38.8125 4.125 38.001 4.125 37C4.125 35.999 3.31352 35.1875 2.3125 35.1875C1.31148 35.1875 0.5 35.999 0.5 37C0.5 38.001 1.31148 38.8125 2.3125 38.8125Z" stroke="white"/>
<path d="M71.6875 29.0205C70.6865 29.0205 69.875 29.832 69.875 30.833C69.875 31.834 70.6865 32.6455 71.6875 32.6455C72.6885 32.6455 73.5 31.834 73.5 30.833C73.5 29.832 72.6885 29.0205 71.6875 29.0205Z" stroke="white"/>
<path d="M14.6458 33.1559L4.66171 33.1559C3.87864 33.0886 2.3125 33.3174 2.3125 34.7712C2.3125 36.225 2.3125 36.3192 2.3125 36.1846" stroke="white"/>
<path d="M59.3542 36.2139L69.3383 36.2139C70.1214 36.3149 71.6875 35.9716 71.6875 33.791C71.6875 31.6103 71.6875 31.469 71.6875 31.6709" stroke="white"/>
</svg>
