<svg width="49" height="47" viewBox="0 0 49 47" fill="none" xmlns="http://www.w3.org/2000/svg">
<rect x="10.5" y="9" width="28" height="28" rx="5.5" stroke="white"/>
<line x1="17" y1="23.5" x2="32" y2="23.5" stroke="white"/>
<line x1="17" y1="27.5" x2="32" y2="27.5" stroke="white"/>
<path d="M17 19H24.5H32" stroke="white"/>
<line x1="20.5" y1="8.5" x2="20.5" y2="3.5" stroke="white"/>
<path d="M28 37.5L28 42.5M31 37.5L31 40.3846" stroke="white"/>
<line x1="27.5" y1="8.5" x2="27.5" y2="5.5" stroke="white"/>
<line x1="21.5" y1="37.5" x2="21.5" y2="40.5" stroke="white"/>
<line x1="31.5" y1="8.5" x2="31.5" y2="4.5" stroke="white"/>
<line x1="17.5" y1="37.5" x2="17.5" y2="42.5" stroke="white"/>
<line x1="17.5" y1="8.5" x2="17.5" y2="6.5" stroke="white"/>
<circle cx="31.5" cy="4" r="1" stroke="white"/>
<path d="M16.5 43C16.5 42.4477 16.9477 42 17.5 42C18.0523 42 18.5 42.4477 18.5 43C18.5 43.5523 18.0523 44 17.5 44C16.9477 44 16.5 43.5523 16.5 43Z" stroke="white"/>
<circle cx="17.5" cy="6" r="1" stroke="white"/>
<path d="M30 41C30 40.4477 30.4477 40 31 40C31.5523 40 32 40.4477 32 41C32 41.5523 31.5523 42 31 42C30.4477 42 30 41.5523 30 41Z" stroke="white"/>
<circle r="1" transform="matrix(-1 0 0 1 21.5 1.5)" stroke="white"/>
<path d="M28.5 45.5C28.5 44.9477 28.0523 44.5 27.5 44.5C26.9477 44.5 26.5 44.9477 26.5 45.5C26.5 46.0523 26.9477 46.5 27.5 46.5C28.0523 46.5 28.5 46.0523 28.5 45.5Z" stroke="white"/>
<path d="M24.9899 8.5V2.83333C25.0554 2.38889 24.8327 1.5 23.4183 1.5C22.0038 1.5 21.9121 1.5 22.0431 1.5" stroke="white"/>
<path d="M24.0101 37.5L24.0101 43.9762C23.9446 44.4841 24.1673 45.5 25.5817 45.5C26.9962 45.5 27.0879 45.5 26.9569 45.5" stroke="white"/>
<line x1="10" y1="25" x2="5" y2="25" stroke="white"/>
<line x1="39" y1="19" x2="44" y2="19" stroke="white"/>
<line x1="10" y1="19" x2="7" y2="19" stroke="white"/>
<line x1="39" y1="26" x2="42" y2="26" stroke="white"/>
<line x1="10" y1="15" x2="5" y2="15" stroke="white"/>
<line x1="39" y1="30" x2="44" y2="30" stroke="white"/>
<line x1="10" y1="31" x2="7" y2="31" stroke="white"/>
<line x1="39" y1="16" x2="42" y2="16" stroke="white"/>
<path d="M4.5 14C5.05228 14 5.5 14.4477 5.5 15C5.5 15.5523 5.05228 16 4.5 16C3.94772 16 3.5 15.5523 3.5 15C3.5 14.4477 3.94772 14 4.5 14Z" stroke="white"/>
<path d="M44.5 31C43.9477 31 43.5 30.5523 43.5 30C43.5 29.4477 43.9477 29 44.5 29C45.0523 29 45.5 29.4477 45.5 30C45.5 30.5523 45.0523 31 44.5 31Z" stroke="white"/>
<path d="M6.5 30C7.05228 30 7.5 30.4477 7.5 31C7.5 31.5523 7.05228 32 6.5 32C5.94772 32 5.5 31.5523 5.5 31C5.5 30.4477 5.94772 30 6.5 30Z" stroke="white"/>
<path d="M42.5 17C41.9477 17 41.5 16.5523 41.5 16C41.5 15.4477 41.9477 15 42.5 15C43.0523 15 43.5 15.4477 43.5 16C43.5 16.5523 43.0523 17 42.5 17Z" stroke="white"/>
<path d="M2 25C2.55228 25 3 24.5523 3 24C3 23.4477 2.55228 23 2 23C1.44772 23 1 23.4477 1 24C1 24.5523 1.44772 25 2 25Z" stroke="white"/>
<path d="M47 19C46.4477 19 46 19.4477 46 20C46 20.5523 46.4477 21 47 21C47.5523 21 48 20.5523 48 20C48 19.4477 47.5523 19 47 19Z" stroke="white"/>
<path d="M10 21.5067L3.52381 21.5067C3.01587 21.4631 2 21.6115 2 22.5545C2 23.4975 2 23.5586 2 23.4713" stroke="white"/>
<path d="M39 23.4899L45.4762 23.4899C45.9841 23.5554 47 23.3327 47 21.9183C47 20.5038 47 20.4121 47 20.5431" stroke="white"/>
</svg>
